# xmcd
# Track frame offsets:
# 150
# 13178
# 28842
# 45213
# 59687
# 83499
# 98088
# 118411
# 136469
# 152527
# 180345
# 196236
# 216884
# 245689
# 264823
#
# Disc length: 3878 seconds
# Revision: 0
# Processed by: cddbd v1.5.2PL0 Copyright (c) Steve Scherf et al.
# Submitted via: VisiTrax 2.10.0.248 - For more info visit www.synapsa.com
#
DISCID=c50f240f
DTITLE=Chainsaw Dupont - Ghosts Kings Of Beale Street
DYEAR=2007
DGENRE=Blues
TTITLE0=Invisible Man
TTITLE1=Sinners Or Saints?
TTITLE2=Flame Of Love
TTITLE3=Devil Turn True
TTITLE4=The Flood
TTITLE5=Never Know
TTITLE6=Every Little Death
TTITLE7=Bluesomatic
TTITLE8=Funky Foot
TTITLE9=When I's Sweet
TTITLE10=King Of My Heart
TTITLE11=Back Again From Gone
TTITLE12=Alibis and Lies
TTITLE13=Bonus Track 1
TTITLE14=Bonus Track 2
EXTD=
EXTT0=
EXTT1=
EXTT2=
EXTT3=
EXTT4=
EXTT5=
EXTT6=
EXTT7=
EXTT8=
EXTT9=
EXTT10=
EXTT11=
EXTT12=
EXTT13=
EXTT14=
PLAYORDER=
